<mxfile host="app.diagrams.net" agent="Mozilla/5.0 (X11; Linux x86_64) AppleWebKit/537.36 (KHTML, like Gecko) Chrome/126.0.0.0 Safari/537.36" version="24.7.5">
  <diagram name="Page-1" id="4d29HWJcMP-if7v3gRJq">
    <mxGraphModel dx="1434" dy="786" grid="1" gridSize="10" guides="1" tooltips="1" connect="1" arrows="1" fold="1" page="1" pageScale="1" pageWidth="827" pageHeight="1169" math="0" shadow="0">
      <root>
        <mxCell id="0" />
        <mxCell id="1" parent="0" />
        <mxCell id="KIeRskVgci5RbPzB0oDc-7" style="edgeStyle=orthogonalEdgeStyle;rounded=0;orthogonalLoop=1;jettySize=auto;html=1;" edge="1" parent="1" source="KIeRskVgci5RbPzB0oDc-1" target="KIeRskVgci5RbPzB0oDc-2">
          <mxGeometry relative="1" as="geometry" />
        </mxCell>
        <mxCell id="KIeRskVgci5RbPzB0oDc-8" style="edgeStyle=orthogonalEdgeStyle;rounded=0;orthogonalLoop=1;jettySize=auto;html=1;" edge="1" parent="1" source="KIeRskVgci5RbPzB0oDc-1" target="KIeRskVgci5RbPzB0oDc-3">
          <mxGeometry relative="1" as="geometry" />
        </mxCell>
        <mxCell id="KIeRskVgci5RbPzB0oDc-9" style="edgeStyle=orthogonalEdgeStyle;rounded=0;orthogonalLoop=1;jettySize=auto;html=1;" edge="1" parent="1" source="KIeRskVgci5RbPzB0oDc-1" target="KIeRskVgci5RbPzB0oDc-4">
          <mxGeometry relative="1" as="geometry">
            <Array as="points">
              <mxPoint x="420" y="250" />
              <mxPoint x="650" y="250" />
            </Array>
          </mxGeometry>
        </mxCell>
        <mxCell id="KIeRskVgci5RbPzB0oDc-1" value="bed" style="ellipse;whiteSpace=wrap;html=1;aspect=fixed;fillColor=#d5e8d4;strokeColor=#82b366;" vertex="1" parent="1">
          <mxGeometry x="380" y="150" width="80" height="80" as="geometry" />
        </mxCell>
        <mxCell id="KIeRskVgci5RbPzB0oDc-10" style="edgeStyle=orthogonalEdgeStyle;rounded=0;orthogonalLoop=1;jettySize=auto;html=1;" edge="1" parent="1" source="KIeRskVgci5RbPzB0oDc-2" target="KIeRskVgci5RbPzB0oDc-6">
          <mxGeometry relative="1" as="geometry" />
        </mxCell>
        <mxCell id="KIeRskVgci5RbPzB0oDc-2" value="matress (.5)" style="ellipse;whiteSpace=wrap;html=1;aspect=fixed;fillColor=#f8cecc;strokeColor=#b85450;" vertex="1" parent="1">
          <mxGeometry x="300" y="270" width="80" height="80" as="geometry" />
        </mxCell>
        <mxCell id="KIeRskVgci5RbPzB0oDc-3" value="throw (.3)" style="ellipse;whiteSpace=wrap;html=1;aspect=fixed;fillColor=#f8cecc;strokeColor=#b85450;" vertex="1" parent="1">
          <mxGeometry x="450" y="270" width="80" height="80" as="geometry" />
        </mxCell>
        <mxCell id="KIeRskVgci5RbPzB0oDc-11" style="edgeStyle=orthogonalEdgeStyle;rounded=0;orthogonalLoop=1;jettySize=auto;html=1;" edge="1" parent="1" source="KIeRskVgci5RbPzB0oDc-4" target="KIeRskVgci5RbPzB0oDc-5">
          <mxGeometry relative="1" as="geometry" />
        </mxCell>
        <mxCell id="KIeRskVgci5RbPzB0oDc-13" style="edgeStyle=orthogonalEdgeStyle;rounded=0;orthogonalLoop=1;jettySize=auto;html=1;" edge="1" parent="1" source="KIeRskVgci5RbPzB0oDc-4" target="KIeRskVgci5RbPzB0oDc-12">
          <mxGeometry relative="1" as="geometry" />
        </mxCell>
        <mxCell id="KIeRskVgci5RbPzB0oDc-4" value="carpet (.2)" style="ellipse;whiteSpace=wrap;html=1;aspect=fixed;fillColor=#d5e8d4;strokeColor=#82b366;" vertex="1" parent="1">
          <mxGeometry x="610" y="270" width="80" height="80" as="geometry" />
        </mxCell>
        <mxCell id="KIeRskVgci5RbPzB0oDc-5" value="carpet cleaner (.5)" style="ellipse;whiteSpace=wrap;html=1;aspect=fixed;fillColor=#f8cecc;strokeColor=#b85450;" vertex="1" parent="1">
          <mxGeometry x="590" y="400" width="80" height="80" as="geometry" />
        </mxCell>
        <mxCell id="KIeRskVgci5RbPzB0oDc-6" value="cover (.7)" style="ellipse;whiteSpace=wrap;html=1;aspect=fixed;" vertex="1" parent="1">
          <mxGeometry x="230" y="400" width="80" height="80" as="geometry" />
        </mxCell>
        <mxCell id="KIeRskVgci5RbPzB0oDc-12" value="polish (.1)" style="ellipse;whiteSpace=wrap;html=1;aspect=fixed;" vertex="1" parent="1">
          <mxGeometry x="720" y="390" width="80" height="80" as="geometry" />
        </mxCell>
      </root>
    </mxGraphModel>
  </diagram>
</mxfile>
